#N canvas 639 51 941 712 10;
#N canvas 301 80 855 608 sawSynth 0;
#X obj 181 15 inlet;
#X obj 181 36 unpack 1 2 3 4 5 6 7 8 9;
#X obj 91 66 mtof;
#X obj 91 98 t f f f;
#X obj 91 149 pack 1 1;
#X obj 91 170 line~;
#X obj 91 191 phasor~;
#X obj 126 249 bp~ 100 1;
#X obj 162 277 clip~ -0.9 0.9;
#X obj 258 87 t b b;
#X obj 263 129 del 1;
#X obj 264 148 pack 0 1;
#X obj 278 249 line~;
#X obj 328 148 pack 1 1;
#X obj 259 321 *~;
#X obj 258 346 *~ 0.5;
#X obj 272 372 hip~ 50;
#X obj 307 400 *~;
#X obj 365 494 outlet~;
#X obj 202 149 pack 1 1;
#X obj 146 170 +;
#X obj 202 170 line~;
#X obj 202 191 +~ 1;
#X obj 202 212 phasor~;
#X obj 198 250 * -1;
#X obj 240 249 * 1;
#X obj 354 15 inlet hipass;
#X msg 450 312 0 \$1;
#X msg 510 312 1 \$1;
#X obj 448 211 t b b;
#X obj 467 356 line;
#X obj 447 246 del 50;
#X obj 455 281 f 50;
#X obj 509 282 f 50;
#X obj 457 15 inlet trigger;
#X obj 497 181 t f f;
#X obj 554 15 inlet attack;
#X obj 650 15 inlet decay;
#X obj 400 438 *~;
#X connect 0 0 1 0;
#X connect 1 0 2 0;
#X connect 1 0 9 0;
#X connect 1 1 20 0;
#X connect 1 2 7 2;
#X connect 1 3 24 0;
#X connect 1 3 25 0;
#X connect 1 4 4 1;
#X connect 1 5 19 1;
#X connect 1 6 13 1;
#X connect 1 6 10 1;
#X connect 1 7 11 1;
#X connect 1 8 17 1;
#X connect 2 0 3 0;
#X connect 3 0 4 0;
#X connect 3 1 20 1;
#X connect 3 2 19 0;
#X connect 4 0 5 0;
#X connect 5 0 6 0;
#X connect 6 0 7 0;
#X connect 7 0 8 0;
#X connect 8 0 14 1;
#X connect 9 0 10 0;
#X connect 9 1 13 0;
#X connect 10 0 11 0;
#X connect 11 0 12 0;
#X connect 12 0 14 0;
#X connect 13 0 12 0;
#X connect 14 0 15 0;
#X connect 15 0 16 0;
#X connect 16 0 17 0;
#X connect 17 0 38 0;
#X connect 19 0 21 0;
#X connect 20 0 7 1;
#X connect 21 0 22 0;
#X connect 22 0 23 0;
#X connect 23 0 7 0;
#X connect 24 0 8 1;
#X connect 25 0 8 2;
#X connect 26 0 16 1;
#X connect 27 0 30 0;
#X connect 28 0 30 0;
#X connect 29 0 31 0;
#X connect 29 1 33 0;
#X connect 30 0 38 1;
#X connect 31 0 32 0;
#X connect 32 0 27 0;
#X connect 33 0 28 0;
#X connect 34 0 29 0;
#X connect 35 0 31 1;
#X connect 35 1 33 1;
#X connect 36 0 35 0;
#X connect 37 0 32 1;
#X connect 38 0 18 0;
#X restore 297 284 pd sawSynth;
#N canvas 319 32 554 417 sawSeq 0;
#X obj 35 19 inlet synthtime;
#X obj 35 40 mod 16;
#X obj 95 94 random 8;
#X obj 95 114 select 0 1 2 3 4 5 6 7;
#X obj 152 176 f;
#X msg 103 208 \$1 1 30 0.6 250 200 100 4000 0.3;
#X obj 244 301 outlet;
#X obj 135 19 inlet drumtime;
#X obj 135 40 mod 64;
#X obj 135 61 sel 56 60 63;
#X obj 290 20 inlet chords;
#X obj 290 41 unpack 1 2 3 4 5 6 7 8 9 10 11 12;
#X obj 185 176 f;
#X obj 218 176 f;
#X obj 251 176 f;
#X obj 314 177 f;
#X obj 350 177 f;
#X obj 385 177 f;
#X obj 420 177 f;
#X msg 300 238 \$1 1 10 0.6 450 250 400 6000 0.3;
#X obj 35 61 select 0;
#X connect 0 0 1 0;
#X connect 1 0 20 0;
#X connect 2 0 3 0;
#X connect 3 0 4 0;
#X connect 3 1 12 0;
#X connect 3 2 13 0;
#X connect 3 3 14 0;
#X connect 3 4 15 0;
#X connect 3 5 16 0;
#X connect 3 6 17 0;
#X connect 3 7 18 0;
#X connect 4 0 5 0;
#X connect 5 0 6 0;
#X connect 7 0 8 0;
#X connect 8 0 9 0;
#X connect 9 0 2 0;
#X connect 9 1 2 0;
#X connect 9 2 2 0;
#X connect 10 0 11 0;
#X connect 11 2 4 1;
#X connect 11 3 12 1;
#X connect 11 4 13 1;
#X connect 11 5 14 1;
#X connect 11 6 15 1;
#X connect 11 7 16 1;
#X connect 11 8 17 1;
#X connect 11 9 18 1;
#X connect 12 0 5 0;
#X connect 13 0 5 0;
#X connect 14 0 5 0;
#X connect 15 0 19 0;
#X connect 16 0 19 0;
#X connect 17 0 19 0;
#X connect 18 0 19 0;
#X connect 19 0 6 0;
#X connect 20 0 2 0;
#X restore 14 507 pd sawSeq;
#X obj 328 191 r timer;
#X obj 14 402 r timer;
#X obj 14 533 s seqNotes;
#X obj 297 162 r seqNotes;
#X obj 297 409 throw~ saw;
#X obj 508 164 catch~ saw;
#X obj 68 237 f;
#X obj 25 370 f;
#X obj 48 370 f;
#X obj 71 370 f;
#X obj 94 370 f;
#X obj 105 237 + 1;
#X obj 53 302 select 0 1 2 3 4 5 6 7;
#X obj 117 370 f;
#X obj 140 370 f;
#X obj 163 370 f;
#X obj 186 370 f;
#X obj 68 265 mod 8;
#X obj 15 189 metro 300;
#X obj 65 482 pack 1 2 3 4 5 6 7 8 9;
#X text 81 140 SEQUENCER;
#X text 328 139 SYNTH ENGINE;
#X text 602 140 OUTPUT MIXER;
#X obj 549 558 dac~;
#X obj 506 489 *~;
#X obj 616 489 *~;
#X msg 631 456 \$1 20;
#X obj 552 473 line~;
#N canvas 245 139 774 437 filterPhaseDelay 0;
#X obj 52 11 inlet tempo;
#N canvas 291 202 632 504 delay 0;
#X obj 167 29 inlet~;
#X obj 225 30 inlet time;
#X obj 349 29 inlet feedback;
#X obj 172 182 +~;
#X obj 240 379 outlet~;
#X obj 226 146 *~ 0.6;
#X obj 243 183 +~;
#X obj 147 380 outlet~;
#X obj 349 89 clip 0 0.9;
#X obj 242 212 delwrite~ \$0-xxxx 5000;
#X obj 225 69 delread~ \$0-xxxx 250;
#X obj 453 29 inlet pan;
#X obj 147 288 *~;
#X obj 434 215 t f f;
#X obj 461 249 swap 1;
#X obj 461 270 -;
#X obj 240 289 *~;
#X obj 115 334 *~;
#X obj 214 334 *~;
#X obj 434 194 / 100;
#X obj 225 111 lop~ 2000;
#X obj 225 90 hip~ 20;
#X connect 0 0 3 0;
#X connect 0 0 6 1;
#X connect 0 0 17 0;
#X connect 0 0 18 0;
#X connect 1 0 10 0;
#X connect 2 0 8 0;
#X connect 3 0 16 0;
#X connect 3 0 12 0;
#X connect 5 0 3 1;
#X connect 5 0 6 0;
#X connect 6 0 9 0;
#X connect 8 0 5 1;
#X connect 10 0 21 0;
#X connect 11 0 19 0;
#X connect 12 0 7 0;
#X connect 13 0 12 1;
#X connect 13 0 18 1;
#X connect 13 1 14 0;
#X connect 14 0 15 0;
#X connect 14 1 15 1;
#X connect 15 0 16 1;
#X connect 15 0 17 1;
#X connect 16 0 4 0;
#X connect 17 0 7 0;
#X connect 18 0 4 0;
#X connect 19 0 13 0;
#X connect 20 0 5 0;
#X connect 21 0 20 0;
#X restore 124 251 pd delay;
#X obj 123 348 outlet~;
#X obj 170 320 outlet~;
#X obj 9 11 inlet~;
#X obj 123 164 vcf~ 100 0.7;
#X obj 216 11 inlet resonance;
#X obj 225 66 phasor~ 0.212;
#X obj 278 106 loadbang;
#X msg 278 130 0.3;
#X obj 125 11 inlet feedback;
#X obj 312 11 inlet phase;
#X obj 617 12 inlet pan;
#X msg 194 40 \$1 20;
#X obj 225 87 lop~ 1;
#X obj 384 11 inlet phslow;
#X obj 225 108 *~ 0;
#X obj 462 11 inlet range;
#X obj 225 129 +~ 500;
#X obj 124 292 *~ 8.5;
#X obj 170 292 *~ 8.5;
#X obj 541 10 inlet limit;
#X connect 0 0 1 1;
#X connect 1 0 19 0;
#X connect 1 1 20 0;
#X connect 4 0 5 0;
#X connect 5 0 1 0;
#X connect 6 0 13 0;
#X connect 7 0 14 0;
#X connect 8 0 9 0;
#X connect 9 0 5 2;
#X connect 10 0 1 2;
#X connect 11 0 7 1;
#X connect 12 0 1 3;
#X connect 13 0 5 2;
#X connect 14 0 16 0;
#X connect 15 0 14 1;
#X connect 16 0 18 0;
#X connect 17 0 16 1;
#X connect 18 0 5 1;
#X connect 19 0 2 0;
#X connect 20 0 3 0;
#X connect 21 0 18 1;
#X restore 506 433 pd filterPhaseDelay;
#X text 545 449 MAIN OUT;
#N canvas 324 271 450 300 limit 0;
#X obj 209 12 inlet~ right;
#X obj 210 249 outlet~ right;
#X obj 209 70 -~ 1;
#X obj 209 49 *~ 4;
#X connect 0 0 3 0;
#X connect 2 0 1 0;
#X connect 3 0 2 0;
#X restore 298 317 pd limit;
#X obj 132 237 s userSpeed;
#X obj 519 235 r userSpeed;
#X obj 39 462 * 16;
#X obj 15 237 s timer;
#X obj 507 204 *~ 1;
#X obj 519 301 + 0;
#X obj 210 424 int;
#X obj 117 457 +;
#X obj 166 419 + 12;
#X obj 15 161 loadbang;
#X obj 506 516 clip~ -0.9 0.9;
#X obj 616 516 clip~ -0.9 0.9;
#X obj 166 441 * 2;
#X text 264 10 CITY FREQUENCIES :: FIFTH :: INCIDENTALS MELODY SYNTHESIS
version 2;
#X obj 352 242 * 20;
#X obj 393 243 * 20;
#X obj 435 267 * 20;
#X obj 598 205 / 100;
#X obj 606 298 / 100;
#X obj 652 264 * 20;
#X obj 651 329 * 10;
#X obj 653 389 * 10;
#X obj 720 439 / 100;
#X msg 695 364 100 \$1;
#X obj 695 388 -;
#X floatatom 352 223 5 0 100 2 saw_hi saw_hi -;
#X text 265 43 - update for version 2: all interface elements need
to convert values 0-100 as they need. Android class TouchPad and SliderPad
will only send 0-100 float. This does not apply to the Timer \, Delay
or Octave controls.;
#X floatatom 393 223 5 0 100 2 saw_atk saw_atk -;
#X floatatom 435 243 5 0 100 2 saw_dcy saw_dcy -;
#X floatatom 132 173 5 0 2000 2 speed speed -;
#X floatatom 210 397 5 0 0 2 octave octave -;
#X floatatom 534 272 5 0 2000 2 delay_add delay_add -;
#X text 266 100 - update vers 2 : replace sliders with number boxes
to receive messages from android app. Streamline other UI.;
#X floatatom 598 181 5 0 100 2 feedback feedback -;
#X floatatom 601 239 5 3.3 100 2 reson reson -;
#X floatatom 606 275 5 0 100 2 phase phase -;
#X floatatom 652 243 5 0 100 2 phase_low phase_low -;
#X floatatom 651 305 5 0 100 2 range range -;
#X floatatom 653 367 5 0 100 2 limit limit -;
#X floatatom 695 341 5 0 100 2 pan pan -;
#X floatatom 720 415 5 0 100 2 main_vol main_vol -;
#X floatatom 44 337 2 0 12 2 u1 u1 -;
#X floatatom 66 337 2 0 12 2 u2 u2 -;
#X floatatom 86 337 2 0 12 2 u3 u3 -;
#X floatatom 106 337 2 0 12 2 u4 u4 -;
#X floatatom 126 337 2 0 12 2 u5 u5 -;
#X floatatom 146 337 2 0 12 2 u6 u6 -;
#X floatatom 165 337 2 0 12 2 u7 u7 -;
#X floatatom 185 337 2 0 12 2 u8 u8 -;
#X connect 0 0 32 0;
#X connect 1 0 4 0;
#X connect 2 0 0 2;
#X connect 3 0 35 0;
#X connect 3 0 1 0;
#X connect 3 0 41 0;
#X connect 5 0 0 0;
#X connect 7 0 37 0;
#X connect 8 0 13 0;
#X connect 8 0 19 0;
#X connect 9 0 40 0;
#X connect 10 0 40 0;
#X connect 11 0 40 0;
#X connect 12 0 40 0;
#X connect 13 0 8 1;
#X connect 14 0 9 0;
#X connect 14 1 10 0;
#X connect 14 2 11 0;
#X connect 14 3 12 0;
#X connect 14 4 15 0;
#X connect 14 5 16 0;
#X connect 14 6 17 0;
#X connect 14 7 18 0;
#X connect 15 0 40 0;
#X connect 16 0 40 0;
#X connect 17 0 40 0;
#X connect 18 0 40 0;
#X connect 19 0 14 0;
#X connect 20 0 8 0;
#X connect 20 0 36 0;
#X connect 21 0 1 2;
#X connect 26 0 43 0;
#X connect 27 0 44 0;
#X connect 28 0 29 0;
#X connect 29 0 26 1;
#X connect 29 0 27 1;
#X connect 30 0 26 0;
#X connect 30 1 27 0;
#X connect 32 0 6 0;
#X connect 34 0 38 0;
#X connect 35 0 1 1;
#X connect 37 0 30 0;
#X connect 38 0 30 1;
#X connect 39 0 45 1;
#X connect 40 0 21 0;
#X connect 40 0 21 1;
#X connect 40 0 21 2;
#X connect 40 0 21 3;
#X connect 40 0 21 4;
#X connect 40 0 21 5;
#X connect 40 0 21 6;
#X connect 40 0 21 7;
#X connect 40 0 21 8;
#X connect 41 0 45 0;
#X connect 42 0 20 0;
#X connect 43 0 25 0;
#X connect 44 0 25 1;
#X connect 45 0 40 1;
#X connect 47 0 0 1;
#X connect 48 0 0 3;
#X connect 49 0 0 4;
#X connect 50 0 30 2;
#X connect 51 0 30 4;
#X connect 52 0 30 5;
#X connect 53 0 30 6;
#X connect 54 0 30 7;
#X connect 55 0 28 0;
#X connect 56 0 57 0;
#X connect 57 0 30 8;
#X connect 58 0 47 0;
#X connect 60 0 48 0;
#X connect 61 0 49 0;
#X connect 62 0 20 1;
#X connect 62 0 33 0;
#X connect 63 0 39 0;
#X connect 64 0 38 1;
#X connect 66 0 50 0;
#X connect 67 0 30 3;
#X connect 68 0 51 0;
#X connect 69 0 52 0;
#X connect 70 0 53 0;
#X connect 71 0 54 0;
#X connect 72 0 56 0;
#X connect 73 0 55 0;
#X connect 74 0 9 1;
#X connect 75 0 10 1;
#X connect 76 0 11 1;
#X connect 77 0 12 1;
#X connect 78 0 15 1;
#X connect 79 0 16 1;
#X connect 80 0 17 1;
#X connect 81 0 18 1;
